<svg width="1500" height="1500" viewBox="0 0 1500 1500" fill="none" xmlns="http://www.w3.org/2000/svg">
<rect width="1500" height="1500" rx="245" fill="#CAA0FF"/>
<rect width="157.595" height="1098.9" rx="78.7974" transform="matrix(0.690652 0.723187 -0.690652 0.723187 1179.26 175.296)" fill="#101010"/>
<path d="M861.417 591.276C853.811 578.899 837.584 576.266 826.757 585.651L715.108 682.431C696.39 698.656 710.71 730.314 734.557 725.428L787.981 714.483C800.951 711.826 803.509 693.565 791.814 687.119L788.023 685.03C774.993 677.849 762.193 694.982 771.987 706.496V706.496L823.057 757.191C825.633 759.749 827.621 762.886 828.871 766.365L986.196 1204.47C991.938 1220.46 1011.13 1225.57 1023.47 1214.39L1079.88 1163.31C1086.02 1157.75 1088.98 1149.25 1087.69 1140.85L1000.83 575.505C999.174 564.719 990.908 556.378 980.553 555.042L876.624 541.636C856.902 539.092 843.292 561.784 854.046 579.281L867.258 600.779L861.417 591.276Z" fill="#101010"/>
<path d="M903.604 629.609C915.424 637.574 917.938 654.565 908.975 665.902L816.549 782.812C801.055 802.411 770.822 787.417 775.487 762.446L785.939 706.505C788.477 692.924 805.917 690.246 812.072 702.491L814.068 706.461C820.926 720.105 804.564 733.508 793.568 723.253V723.253L745.153 669.777C742.711 667.079 739.715 664.997 736.392 663.689L317.998 498.953C302.728 492.941 297.847 472.841 308.518 459.921L357.301 400.859C362.615 394.425 370.733 391.33 378.754 392.682L918.665 483.629C928.966 485.364 936.932 494.019 938.208 504.862L951.011 613.687C953.44 634.338 931.769 648.589 915.059 637.329L894.529 623.494L903.604 629.609Z" fill="#101010"/>
<path d="M515.078 965.31C511.235 959.058 504.893 954.967 497.832 954.184L415.242 945.037C388.989 942.13 378.892 979.827 402.76 991.639L496.953 1038.25L437.391 1005.43C436.326 1004.84 435.046 1005.65 435.046 1006.91V1006.91C435.046 1007.36 435.22 1007.79 435.528 1008.11L493.221 1067.09C495.679 1069.6 497.579 1072.64 498.788 1076.01L587.428 1322.85C593.17 1338.84 612.365 1343.95 624.704 1332.77L644.244 1315.08C650.389 1309.51 653.344 1301.01 652.054 1292.61L602.063 967.225C600.406 956.439 592.14 948.098 581.785 946.762L541.143 941.519C523.59 939.255 511.477 959.452 521.048 975.024V975.024L515.078 965.31Z" fill="#101010"/>
<path d="M538.257 989.2C548.383 996.025 551.924 1009.77 546.448 1021L536.507 1041.39C528.365 1058.08 506.078 1059.45 496.136 1043.86L476.989 1013.84L489.25 1038.23C493.352 1046.39 483.566 1054.41 476.989 1048.27V1048.27L449.523 1017.94C447.081 1015.24 444.085 1013.16 440.762 1011.85L205.198 919.099C189.929 913.086 185.047 892.987 195.719 880.067L212.618 859.607C217.933 853.172 226.05 850.078 234.071 851.429L544.822 903.775C555.123 905.51 563.089 914.165 564.365 925.008L569.372 967.565C571.534 985.944 552.246 998.628 537.375 988.606V988.606L538.257 989.2Z" fill="#101010"/>
</svg>
